####
#
# OBJ File Generated by Meshlab
#
####
# Object palm.obj
#
# Vertices: 208
# Faces: 412
#
####
vn -0.383638 -6.240895 0.451049
v 2.055202 -0.801286 -1.412011
vn 0.672103 -5.936715 -0.345376
v 0.991489 -0.487935 0.340366
vn 0.552398 -6.077924 -1.112381
v -0.151750 -0.641101 -0.083800
vn -0.607540 -6.247310 0.138275
v 0.362119 -0.617428 -1.642166
vn 0.224128 6.247700 -0.573928
v 2.082381 1.095375 -1.442303
vn 0.606826 6.245629 0.215669
v 0.994080 1.231540 0.330685
vn 0.571477 6.232772 -0.251463
v -0.150199 1.377528 -0.100175
vn 0.081895 6.160572 -1.158550
v 0.374284 1.134405 -1.688855
vn -0.320440 -6.267858 0.082924
v 1.998187 -0.831875 -2.593261
vn 0.779178 -5.036291 2.117099
v 1.149373 -0.826032 2.317500
vn -2.413468 -4.219644 2.869190
v -1.434572 -0.923631 2.467575
vn -0.733545 -6.195490 0.653414
v 0.390113 -0.664784 -2.493868
vn -0.245336 6.232275 -0.607108
v 2.058381 0.930611 -2.636395
vn 0.342311 2.834753 5.463162
v 1.289428 0.566358 2.186233
vn -1.450092 3.791431 3.685246
v -1.434573 0.822359 2.467574
vn -0.118162 6.122590 -1.405376
v 0.410870 0.926622 -2.552885
vn -0.320454 -4.825137 -3.294971
v 0.951383 -0.700708 -3.721711
vn -0.619934 -4.772766 -2.921535
v 0.149326 -0.723634 -3.549694
vn -0.629525 4.329566 -4.080418
v 0.969792 0.587878 -3.757376
vn -0.917669 4.036353 -4.390308
v 0.157429 0.546322 -3.595629
vn 1.058130 -6.131952 0.521065
v 3.472368 -0.735884 -0.967003
vn 0.690363 -6.146335 0.773508
v 3.405468 -0.570751 0.526416
vn 0.729409 6.083485 -0.186196
v 3.493035 0.965222 -0.984534
vn 0.288789 6.095886 -0.031369
v 3.407934 1.020665 0.523860
vn 0.673633 -6.223341 -0.098324
v 3.403607 -0.851607 -2.594560
vn 1.061631 -4.269891 3.916229
v 2.801325 -0.501424 2.220480
vn 0.512777 6.228107 -0.388417
v 3.518869 0.991754 -2.631528
vn -0.373444 3.768950 4.432896
v 2.801790 0.864687 2.220460
vn 0.190485 -5.216146 -3.166914
v 2.815388 -0.707676 -3.662796
vn -0.299051 4.918489 -3.709065
v 2.845266 0.752527 -3.684647
vn 3.009055 -5.130275 0.731452
v 4.270426 -0.512430 -0.960855
vn 3.363380 -5.106679 -0.057484
v 4.280164 -0.294086 0.732803
vn 2.549615 5.297663 -1.407607
v 4.276176 0.845300 -0.967275
vn 2.945190 5.300727 -0.196530
v 4.280634 0.873351 0.732648
vn 2.725880 -2.026632 2.300856
v 4.119209 -0.256203 2.245151
vn 4.538635 4.040517 -0.762384
v 4.292970 0.845876 -2.694906
vn 2.410517 1.809388 2.466012
v 4.122141 0.920134 2.244998
vn 2.894217 -5.014084 -0.195771
v 4.254179 -0.698036 -2.669062
vn 2.251493 -3.492372 -3.235169
v 3.786414 -0.622731 -3.699702
vn 1.946669 3.402464 -3.334192
v 3.800526 0.781335 -3.704771
vn -1.355143 -5.722613 -0.787807
v -1.920739 -0.742470 -0.337491
vn -0.896957 -6.049401 -0.350877
v -1.671885 -0.623991 -1.724917
vn -3.603031 4.836462 -0.396729
v -1.920278 1.040501 -0.352010
vn -2.685807 5.282058 -1.327372
v -1.668234 0.909348 -1.765791
vn -3.053238 -3.272717 1.760777
v -2.207898 -0.847974 1.835794
vn -1.055509 -5.977160 0.621274
v -1.589412 -0.654949 -2.455304
vn -3.009584 3.354977 1.695902
v -2.207898 0.794135 1.835794
vn -2.436013 5.311907 -1.423118
v -1.583663 0.779311 -2.506404
vn -1.139906 -4.116967 -2.904937
v -1.203541 -0.767729 -3.303416
vn -1.658108 2.860595 -3.793611
v -1.340975 0.527842 -3.437730
vn -2.030016 -5.560465 -1.056413
v -2.087009 -0.816651 0.342684
vn 0.500139 -5.846908 -1.897725
v -0.561521 -1.034832 0.708680
vn 0.998744 3.337529 4.453507
v 0.417994 0.873335 2.226346
vn -4.081602 4.508127 -0.090452
v -2.089714 0.919761 0.336561
vn 0.942371 -2.966934 2.433434
v 0.222968 -1.205448 2.464808
vn 0.112583 6.094857 0.420126
v -0.561249 1.448601 0.702622
vn 1.321578 -5.909089 -1.059305
v 0.122891 -1.128969 1.468929
vn 0.804310 6.002484 1.358642
v 0.122928 1.262161 1.467670
vn -2.910404 -5.213343 -0.082988
v -2.211594 -0.850070 1.041817
vn -0.675116 -5.872150 -0.420758
v -0.932681 -1.239022 1.506242
vn 0.506410 2.933891 4.024828
v -0.465949 0.977341 2.434072
vn -4.072227 4.177651 0.127112
v -2.230530 0.836523 1.040191
vn -0.132395 -2.827916 2.848514
v -0.597876 -1.199517 2.599303
vn -0.894518 5.911784 1.589823
v -0.833144 1.263170 1.626956
vn 0.698272 5.615467 2.139660
v -0.323053 1.222832 1.873266
vn 0.047568 -6.061120 0.155023
v -0.560719 -1.248969 1.873350
vn 3.586025 3.915039 1.116110
v 4.265250 0.961780 0.406504
vn 3.986379 2.882436 -0.338390
v 4.411619 0.930001 1.056388
vn 4.217423 -3.590487 0.060520
v 4.424383 -0.401947 -0.696497
vn 3.610960 -3.544315 0.727126
v 4.409081 -0.289577 1.056395
vn 3.620488 -4.018713 0.899328
v 4.263372 -0.407392 0.406783
vn 3.743341 -4.454889 0.457700
v 4.266858 -0.559767 -1.306300
vn 3.449497 4.423988 0.382864
v 4.276373 0.892332 -1.326113
vn 3.316390 4.469546 -0.367172
v 4.267789 0.911751 -2.385917
vn 3.291564 4.200126 -1.406850
v 4.214635 0.854119 -3.004091
vn 3.280956 3.325151 -0.998058
v 4.427751 0.960315 -0.698077
vn 3.433687 -4.628069 0.431144
v 4.259840 -0.671094 -2.318918
vn 3.149409 -4.432652 -1.509813
v 4.178625 -0.688477 -2.992116
vn 0.371319 -2.218946 4.080010
v 1.439358 -0.703328 2.480610
vn -0.242429 1.193287 6.161005
v 1.536715 -0.245824 2.384786
vn -2.327901 -0.831261 3.204051
v -1.726902 -0.393860 2.708445
vn -2.196970 0.630997 3.487885
v -1.726818 0.227409 2.708362
vn 0.347039 -1.098113 6.059202
v 2.857157 -0.106805 2.385039
vn -0.232533 1.084283 6.079624
v 2.857294 0.408357 2.385030
vn 2.832876 -0.562888 3.031871
v 4.125108 0.090364 2.386645
vn 2.727077 0.586828 3.028452
v 4.126239 0.541770 2.386572
vn 0.586700 0.636545 6.190257
v 0.429669 -0.557536 2.422349
vn 0.869959 0.843794 6.151977
v -0.472948 -0.561678 2.539132
vn 0.853356 0.335868 6.115595
v -0.336563 0.134086 2.369819
vn 0.139966 0.889885 6.141049
v 0.619824 -0.104663 2.305566
vn -4.975218 -2.770037 -0.866672
v -2.387911 -0.395112 -0.452966
vn -5.454070 1.813660 -0.517276
v -2.457377 0.377540 -0.458653
vn -4.479331 -3.075366 -0.655005
v -2.233049 -0.373888 -1.770551
vn -5.117364 1.998613 -0.916438
v -2.301941 0.341379 -1.786572
vn -4.821119 -1.174184 2.341731
v -2.392744 -0.429275 1.851475
vn -5.033175 0.820052 2.523999
v -2.392744 0.252933 1.851474
vn -4.351527 -2.953562 -0.898888
v -2.112593 -0.416041 -2.464012
vn -4.898057 1.870981 -1.488399
v -2.181117 0.278819 -2.484071
vn -5.614744 1.553224 -0.289263
v -2.529815 0.289289 0.190610
vn -4.836246 -2.763031 -0.852177
v -2.460291 -0.519262 0.193079
vn -4.680140 -2.743784 0.075300
v -2.486840 -0.639277 0.897326
vn -5.802403 1.093583 0.247504
v -2.556370 0.202673 0.896564
vn 5.528665 1.436060 -2.215319
v 4.571733 0.516426 0.610344
vn 5.403961 -1.978291 -1.837405
v 4.561003 0.063743 0.610390
vn 4.982074 -1.559172 -0.374420
v 4.662224 0.075126 0.827928
vn 4.953373 1.661338 -0.062658
v 4.662329 0.502101 0.827933
vn 4.971089 1.595715 2.131952
v 4.587847 0.529692 1.056149
vn 4.917876 -1.190297 2.971924
v 4.586754 0.089988 1.056081
vn -0.934151 -1.774681 -5.490330
v 0.840608 -0.306540 -4.000627
vn -1.034206 1.612811 -5.466253
v 0.845319 0.177796 -4.013154
vn -1.519626 -1.611240 -5.712570
v 0.071187 -0.351361 -3.750533
vn -1.528043 1.297572 -5.776176
v 0.073491 0.159094 -3.767801
vn 0.107337 -2.217845 -5.261199
v 2.675581 -0.285434 -4.112973
vn -0.164968 2.022234 -5.407726
v 2.680170 0.270561 -4.117215
vn 2.053824 -1.552190 -4.379376
v 3.668596 -0.223591 -4.062782
vn 1.987294 1.441222 -4.518488
v 3.670941 0.330763 -4.063288
vn 4.755995 -1.665056 0.451779
v 4.674984 -0.214053 -2.459786
vn 4.713769 1.665308 -0.039365
v 4.680921 0.375374 -2.490397
vn -2.308091 -1.672537 -5.133383
v -1.432104 -0.399712 -3.412731
vn -2.478256 0.573323 -4.785193
v -1.516154 0.167549 -3.481210
vn 5.696460 -2.121348 -0.172463
v 4.590168 -0.235869 -2.678261
vn 5.634235 2.096393 -0.532641
v 4.598609 0.354756 -2.685263
vn 4.346229 1.492319 -0.951087
v 4.663546 0.347767 -2.906027
vn 4.307447 -1.550001 -1.113619
v 4.655748 -0.231591 -2.901483
vn 5.300689 -1.522228 -1.217515
v 4.651522 -0.085040 -1.111127
vn 5.253274 1.465471 -2.846389
v 4.504772 0.549303 -1.150166
vn 4.876826 -1.803423 -0.139011
v 4.692192 -0.077268 -0.955531
vn 4.881981 1.135664 -1.531736
v 4.693061 0.432648 -0.956875
vn 5.195294 -1.557773 1.900014
v 4.657122 -0.000494 -0.700474
vn 0.275514 5.551094 2.259965
v 1.377678 1.089636 1.676503
vn -0.190411 6.078633 1.093845
v 1.646330 1.118627 0.944615
vn 1.133982 -5.923700 -0.906445
v 1.375134 -0.641373 1.674685
vn 0.418381 -6.101859 -0.781835
v 1.645435 -0.512523 0.948171
vn -0.417835 5.856658 2.031703
v 2.826312 1.082708 1.807930
vn -0.229755 6.166917 0.064095
v 2.996634 1.197668 1.283890
vn 0.711338 -6.034369 0.927325
v 2.826006 -0.655260 1.807940
vn 0.461871 -6.163289 -0.293657
v 2.996116 -0.653088 1.284146
vn 2.363923 2.965000 0.256905
v 4.210022 1.286389 1.496983
vn 2.276908 2.676198 1.549898
v 4.137038 1.195505 1.919038
vn 3.415476 -3.225929 0.628204
v 4.206527 -0.414264 1.496917
vn 3.289003 -3.038622 1.037728
v 4.133515 -0.404419 1.919109
vn 2.073943 2.983618 -0.471704
v 4.317420 1.255109 -0.306162
vn 2.459732 3.111335 1.141961
v 4.275815 1.214085 0.075845
vn 3.402575 -3.461568 0.141660
v 4.314108 -0.557892 -0.305081
vn 3.476312 -3.349636 0.914722
v 4.273055 -0.529184 0.076540
vn -0.292444 -6.225792 0.756001
v 1.322392 -0.654694 -0.558210
vn -0.219384 -6.258938 -0.142216
v 0.099328 -0.587546 -0.848202
vn 0.467012 6.252907 -0.300984
v 1.332311 1.195450 -0.579793
vn 0.412324 6.187831 -0.901127
v 0.104382 1.285792 -0.879357
vn 0.773982 -6.095985 0.249061
v 3.450068 -0.754871 -0.469197
vn 0.406570 -6.084103 1.114181
v 3.427768 -0.694189 0.028610
vn 0.103584 6.154162 -1.088582
v 3.464668 1.082169 -0.481736
vn -0.414586 6.219578 0.482574
v 3.436301 1.118654 0.021062
vn -1.124181 -5.810422 -0.568410
v -1.791141 -0.697727 -1.009136
vn -3.094651 4.994978 -1.041059
v -1.789594 1.048056 -1.036099
vn -4.816096 -2.906820 -0.657244
v -2.316829 -0.366656 -1.090004
vn -5.292832 1.925763 -0.755773
v -2.386105 0.388176 -1.100525
vn 3.231723 3.778567 -0.448828
v 4.270650 0.991574 -2.032649
vn 3.347855 3.746892 0.445757
v 4.273512 0.987742 -1.679381
vn 3.602052 -3.812114 0.049998
v 4.262179 -0.696012 -1.981379
vn 3.749237 -3.734944 0.665426
v 4.264519 -0.654655 -1.643840
vn 0.415760 6.098887 0.581027
v 3.501647 1.099340 -1.533532
vn 0.193697 6.193229 -0.603893
v 3.510258 1.073935 -2.082530
vn 0.677328 -6.088811 0.848361
v 3.449448 -0.846247 -1.509522
vn 0.609263 -6.150297 0.005752
v 3.426528 -0.888345 -2.052041
vn 2.354175 3.790551 -2.337351
v 3.938562 0.884774 -3.471211
vn 2.801739 3.836213 -1.379689
v 4.076599 0.910869 -3.237652
vn 2.661017 -3.834632 -2.319221
v 3.917151 -0.710670 -3.463840
vn 2.999169 -3.879099 -1.468988
v 4.047888 -0.735675 -3.227978
vn 0.176885 6.085214 -0.409583
v 3.294335 1.029856 -2.982567
vn -0.159368 5.846907 -2.087420
v 3.069800 0.941822 -3.333607
vn -0.149480 -6.179294 -0.710648
v 1.223917 -0.810610 -3.285831
vn -0.391630 -6.204283 0.364620
v 0.219698 -0.760297 -3.138411
vn -0.414495 5.890666 -1.734839
v 1.260032 0.829235 -3.332559
vn -2.497227 4.665366 -2.250287
v -1.504538 0.650230 -3.096785
vn -3.723925 -2.594977 -2.424521
v -1.877290 -0.495962 -3.045355
vn 0.275043 -6.164608 -0.329363
v 3.207534 -0.880890 -2.950638
vn 0.113734 -6.046749 -1.419797
v 3.011461 -0.828263 -3.306717
vn -1.407675 -5.502880 -0.232941
v -1.415679 -0.781482 -2.993176
vn -4.184377 1.452143 -2.787943
v -1.964589 0.226503 -3.069569
vn -0.382333 5.821400 -2.137970
v 0.234665 0.783581 -3.198279
vn -0.316025 -4.377817 -2.474673
v -0.568218 -0.779560 -3.407068
vn -0.604792 3.756328 -4.511436
v -0.571732 0.568204 -3.471188
vn 0.327123 -6.072015 -1.304253
v -1.003046 -0.659387 -0.217308
vn -2.731724 -4.416952 2.549794
v -1.792585 -0.884117 2.109339
vn 0.018604 -5.963848 0.960653
v -0.570393 -0.510254 -2.445730
vn -0.053271 -6.222677 -0.238396
v -0.623599 -0.519908 -1.666734
vn -0.444242 6.055485 -1.562879
v -0.615674 1.105477 -1.709832
vn -0.468115 6.093585 -1.428897
v -0.557098 0.915515 -2.499939
vn -2.728807 4.371776 2.714506
v -1.792585 0.840444 2.109339
vn -0.976667 6.033911 -0.486657
v -1.002038 1.404406 -0.232510
vn -0.451892 -5.906205 -1.722389
v -1.291752 -0.966936 0.507792
vn -1.925815 5.829360 0.328557
v -1.291576 1.345411 0.501814
vn -1.434205 -6.012513 -0.410982
v -1.496663 -1.071316 1.306018
vn -2.148212 5.713847 1.058023
v -1.496664 1.165402 1.305205
vn -5.021902 -1.651358 3.095147
v -1.791210 -0.410840 2.429104
vn -5.353534 0.609851 2.847043
v -1.791210 0.224263 2.429104
vn -1.058729 0.882882 -6.023152
v -0.697270 0.202412 -3.579486
vn -1.242374 -1.406091 -5.923024
v -0.688957 -0.398794 -3.544817
vn -0.511294 5.999961 -1.243462
v -0.810560 1.326963 -0.952680
vn 0.287092 -6.231195 -0.434087
v -0.813867 -0.572546 -0.924067
vn -0.497454 5.773489 -2.145877
v -0.609572 0.778526 -3.107667
vn 0.371351 -6.072277 1.323887
v -0.613858 -0.748054 -3.038490
vn 5.731313 0.032481 1.766238
v 4.129312 0.491122 1.621605
vn 5.480339 1.316048 1.672783
v 4.664421 0.459004 -0.738074
vn 5.974924 -0.108728 0.590247
v 4.351783 0.228929 -0.103859
vn 5.987841 0.068953 0.665681
v 4.475786 0.143747 -1.919697
vn 4.717957 0.018674 -3.815941
v 4.184113 0.115265 -3.472351
# 208 vertices, 0 vertices normals

f 146//146 2//2 3//3
f 146//146 3//3 147//147
f 148//148 149//149 7//7
f 148//148 7//7 6//6
f 13//13 5//5 162//162
f 13//13 162//162 163//163
f 137//137 22//22 70//70
f 137//137 70//70 140//140
f 13//13 163//163 27//27
f 199//199 182//182 49//49
f 199//199 49//49 119//119
f 202//202 183//183 50//50
f 202//202 50//50 175//175
f 110//110 19//19 30//30
f 110//110 30//30 114//114
f 192//192 194//194 59//59
f 192//192 59//59 51//51
f 31//31 69//69 21//21
f 22//22 71//71 32//32
f 109//109 17//17 18//18
f 109//109 18//18 111//111
f 48//48 175//175 180//180
f 48//48 180//180 98//98
f 38//38 25//25 78//78
f 172//172 173//173 18//18
f 172//172 18//18 17//17
f 114//114 30//30 40//40
f 114//114 40//40 116//116
f 23//23 76//76 33//33
f 23//23 33//33 73//73
f 133//133 2//2 22//22
f 133//133 22//22 137//137
f 130//130 14//14 28//28
f 130//130 28//28 134//134
f 79//79 10//10 26//26
f 79//79 26//26 83//83
f 148//148 6//6 24//24
f 148//148 24//24 153//153
f 9//9 172//172 178//178
f 9//9 178//178 177//177
f 1//1 164//164 21//21
f 75//75 27//27 74//74
f 75//75 74//74 36//36
f 83//83 26//26 35//35
f 83//83 35//35 85//85
f 31//31 21//21 72//72
f 90//90 87//87 79//79
f 90//90 79//79 80//80
f 87//87 55//55 10//10
f 87//87 10//10 79//79
f 200//200 188//188 44//44
f 200//200 44//44 155//155
f 186//186 187//187 42//42
f 186//186 42//42 46//46
f 91//91 41//41 51//51
f 91//91 51//51 100//100
f 121//121 122//122 118//118
f 121//121 118//118 117//117
f 184//184 192//192 51//51
f 184//184 51//51 41//41
f 93//93 97//97 46//46
f 93//93 46//46 42//42
f 195//195 193//193 54//54
f 195//195 54//54 62//62
f 70//70 22//22 32//32
f 197//197 190//190 47//47
f 197//197 47//47 96//96
f 187//187 201//201 154//154
f 187//187 154//154 42//42
f 201//201 184//184 41//41
f 201//201 41//41 154//154
f 56//56 64//64 65//65
f 56//56 65//65 58//58
f 63//63 55//55 87//87
f 63//63 87//87 88//88
f 89//89 88//88 87//87
f 89//89 87//87 90//90
f 193//193 191//191 43//43
f 193//193 43//43 54//54
f 2//2 57//57 52//52
f 2//2 52//52 3//3
f 58//58 6//6 7//7
f 58//58 7//7 56//56
f 190//190 195//195 62//62
f 190//190 62//62 47//47
f 100//100 51//51 59//59
f 100//100 59//59 101//101
f 63//63 88//88 81//81
f 63//63 81//81 11//11
f 11//11 60//60 66//66
f 11//11 66//66 63//63
f 102//102 96//96 47//47
f 102//102 47//47 62//62
f 52//52 57//57 66//66
f 52//52 66//66 60//60
f 22//22 151//151 145//145
f 22//22 145//145 71//71
f 128//128 126//126 73//73
f 128//128 73//73 33//33
f 122//122 123//123 75//75
f 122//122 75//75 36//36
f 106//106 103//103 67//67
f 106//106 67//67 34//34
f 105//105 108//108 70//70
f 105//105 70//70 32//32
f 13//13 27//27 170//170
f 175//175 50//50 120//120
f 175//175 120//120 180//180
f 134//134 28//28 37//37
f 134//134 37//37 139//139
f 122//122 36//36 74//74
f 122//122 74//74 118//118
f 14//14 80//80 84//84
f 14//14 84//84 28//28
f 80//80 79//79 83//83
f 80//80 83//83 84//84
f 28//28 84//84 86//86
f 28//28 86//86 37//37
f 84//84 83//83 85//85
f 84//84 85//85 86//86
f 89//89 82//82 81//81
f 89//89 81//81 88//88
f 82//82 89//89 61//61
f 82//82 61//61 15//15
f 61//61 89//89 90//90
f 61//61 90//90 53//53
f 53//53 90//90 80//80
f 53//53 80//80 14//14
f 156//156 157//157 94//94
f 156//156 94//94 93//93
f 94//94 98//98 97//97
f 94//94 97//97 93//93
f 43//43 92//92 99//99
f 43//43 99//99 54//54
f 92//92 91//91 100//100
f 92//92 100//100 99//99
f 185//185 196//196 95//95
f 185//185 95//95 45//45
f 196//196 197//197 96//96
f 196//196 96//96 95//95
f 54//54 99//99 102//102
f 54//54 102//102 62//62
f 99//99 100//100 101//101
f 99//99 101//101 102//102
f 32//32 71//71 104//104
f 32//32 104//104 105//105
f 105//105 104//104 103//103
f 105//105 103//103 106//106
f 34//34 68//68 107//107
f 34//34 107//107 106//106
f 106//106 107//107 108//108
f 106//106 108//108 105//105
f 183//183 198//198 120//120
f 183//183 120//120 50//50
f 198//198 199//199 119//119
f 198//198 119//119 120//120
f 17//17 109//109 113//113
f 17//17 113//113 29//29
f 109//109 110//110 114//114
f 109//109 114//114 113//113
f 19//19 110//110 112//112
f 19//19 112//112 20//20
f 110//110 109//109 111//111
f 110//110 111//111 112//112
f 29//29 113//113 115//115
f 29//29 115//115 39//39
f 113//113 114//114 116//116
f 113//113 116//116 115//115
f 180//180 120//120 119//119
f 180//180 119//119 176//176
f 21//21 164//164 161//161
f 21//21 161//161 72//72
f 176//176 119//119 49//49
f 176//176 49//49 179//179
f 38//38 121//121 117//117
f 38//38 117//117 77//77
f 38//38 78//78 124//124
f 38//38 124//124 121//121
f 121//121 124//124 123//123
f 121//121 123//123 122//122
f 31//31 127//127 129//129
f 31//31 129//129 69//69
f 31//31 72//72 125//125
f 31//31 125//125 127//127
f 127//127 125//125 126//126
f 127//127 126//126 128//128
f 26//26 136//136 141//141
f 26//26 141//141 35//35
f 136//136 137//137 140//140
f 136//136 140//140 141//141
f 10//10 132//132 136//136
f 10//10 136//136 26//26
f 132//132 133//133 137//137
f 132//132 137//137 136//136
f 6//6 131//131 135//135
f 6//6 135//135 24//24
f 131//131 130//130 134//134
f 131//131 134//134 135//135
f 194//194 185//185 45//45
f 194//194 45//45 59//59
f 61//61 65//65 64//64
f 61//61 64//64 15//15
f 24//24 135//135 138//138
f 24//24 138//138 68//68
f 135//135 134//134 139//139
f 135//135 139//139 138//138
f 101//101 95//95 96//96
f 101//101 96//96 102//102
f 63//63 66//66 57//57
f 63//63 57//57 55//55
f 53//53 14//14 130//130
f 53//53 130//130 58//58
f 133//133 132//132 57//57
f 133//133 57//57 2//2
f 10//10 55//55 57//57
f 10//10 57//57 132//132
f 6//6 58//58 130//130
f 6//6 130//130 131//131
f 61//61 53//53 58//58
f 61//61 58//58 65//65
f 59//59 45//45 95//95
f 59//59 95//95 101//101
f 9//9 12//12 173//173
f 9//9 173//173 172//172
f 158//158 163//163 162//162
f 158//158 162//162 159//159
f 181//181 174//174 19//19
f 181//181 19//19 20//20
f 77//77 25//25 38//38
f 172//172 17//17 29//29
f 172//172 29//29 178//178
f 9//9 177//177 25//25
f 146//146 1//1 150//150
f 146//146 150//150 151//151
f 2//2 146//146 151//151
f 2//2 151//151 22//22
f 92//92 43//43 155//155
f 92//92 155//155 157//157
f 191//191 200//200 155//155
f 191//191 155//155 43//43
f 154//154 156//156 93//93
f 154//154 93//93 42//42
f 151//151 150//150 144//144
f 151//151 144//144 145//145
f 153//153 143//143 142//142
f 153//153 142//142 152//152
f 152//152 142//142 76//76
f 152//152 76//76 23//23
f 41//41 91//91 156//156
f 41//41 156//156 154//154
f 91//91 92//92 157//157
f 91//91 157//157 156//156
f 24//24 67//67 143//143
f 24//24 143//143 153//153
f 150//150 21//21 69//69
f 150//150 69//69 144//144
f 1//1 4//4 12//12
f 1//1 12//12 9//9
f 5//5 148//148 153//153
f 5//5 153//153 152//152
f 8//8 149//149 148//148
f 8//8 148//148 5//5
f 1//1 9//9 165//165
f 1//1 165//165 164//164
f 9//9 25//25 165//165
f 44//44 48//48 98//98
f 44//44 98//98 94//94
f 5//5 152//152 23//23
f 188//188 189//189 48//48
f 188//188 48//48 44//44
f 147//147 4//4 1//1
f 147//147 1//1 146//146
f 164//164 165//165 160//160
f 164//164 160//160 161//161
f 165//165 25//25 77//77
f 165//165 77//77 160//160
f 74//74 27//27 163//163
f 74//74 163//163 158//158
f 159//159 162//162 23//23
f 159//159 23//23 73//73
f 171//171 170//170 167//167
f 171//171 167//167 166//166
f 25//25 177//177 169//169
f 25//25 169//169 78//78
f 30//30 171//171 166//166
f 30//30 166//166 40//40
f 203//203 186//186 46//46
f 203//203 46//46 179//179
f 182//182 203//203 179//179
f 182//182 179//179 49//49
f 157//157 155//155 44//44
f 157//157 44//44 94//94
f 19//19 174//174 171//171
f 19//19 171//171 30//30
f 98//98 180//180 176//176
f 98//98 176//176 97//97
f 97//97 176//176 179//179
f 97//97 179//179 46//46
f 5//5 23//23 162//162
f 177//177 178//178 168//168
f 177//177 168//168 169//169
f 178//178 29//29 39//39
f 178//178 39//39 168//168
f 170//170 27//27 75//75
f 170//170 75//75 167//167
f 1//1 21//21 150//150
f 24//24 68//68 34//34
f 24//24 34//34 67//67
f 174//174 13//13 170//170
f 174//174 170//170 171//171
f 181//181 16//16 13//13
f 181//181 13//13 174//174
f 8//8 5//5 13//13
f 8//8 13//13 16//16
f 189//189 202//202 175//175
f 189//189 175//175 48//48
f 111//111 18//18 182//182
f 111//111 182//182 199//199
f 181//181 20//20 183//183
f 181//181 183//183 202//202
f 52//52 60//60 194//194
f 52//52 194//194 192//192
f 149//149 8//8 188//188
f 149//149 188//188 200//200
f 12//12 4//4 187//187
f 12//12 187//187 186//186
f 3//3 52//52 192//192
f 3//3 192//192 184//184
f 64//64 56//56 193//193
f 64//64 193//193 195//195
f 82//82 15//15 190//190
f 82//82 190//190 197//197
f 4//4 147//147 201//201
f 4//4 201//201 187//187
f 147//147 3//3 184//184
f 147//147 184//184 201//201
f 56//56 7//7 191//191
f 56//56 191//191 193//193
f 15//15 64//64 195//195
f 15//15 195//195 190//190
f 11//11 81//81 196//196
f 11//11 196//196 185//185
f 81//81 82//82 197//197
f 81//81 197//197 196//196
f 20//20 112//112 198//198
f 20//20 198//198 183//183
f 112//112 111//111 199//199
f 112//112 199//199 198//198
f 60//60 11//11 185//185
f 60//60 185//185 194//194
f 7//7 149//149 200//200
f 7//7 200//200 191//191
f 8//8 16//16 189//189
f 8//8 189//189 188//188
f 173//173 12//12 186//186
f 173//173 186//186 203//203
f 18//18 173//173 203//203
f 18//18 203//203 182//182
f 16//16 181//181 202//202
f 16//16 202//202 189//189
f 204//204 140//140 70//70
f 128//128 205//205 129//129
f 128//128 129//129 127//127
f 76//76 205//205 128//128
f 76//76 128//128 33//33
f 204//204 141//141 140//140
f 108//108 204//204 70//70
f 204//204 108//108 107//107
f 204//204 107//107 68//68
f 138//138 204//204 68//68
f 139//139 204//204 138//138
f 204//204 139//139 37//37
f 86//86 204//204 37//37
f 204//204 86//86 85//85
f 204//204 85//85 35//35
f 141//141 204//204 35//35
f 143//143 206//206 142//142
f 206//206 143//143 67//67
f 142//142 206//206 76//76
f 206//206 205//205 76//76
f 206//206 129//129 205//205
f 129//129 206//206 69//69
f 206//206 144//144 69//69
f 206//206 145//145 144//144
f 145//145 206//206 71//71
f 206//206 104//104 71//71
f 104//104 206//206 103//103
f 103//103 206//206 67//67
f 158//158 207//207 74//74
f 159//159 207//207 158//158
f 207//207 118//118 74//74
f 207//207 117//117 118//118
f 117//117 207//207 77//77
f 207//207 160//160 77//77
f 207//207 161//161 160//160
f 161//161 207//207 72//72
f 207//207 125//125 72//72
f 207//207 126//126 125//125
f 126//126 207//207 73//73
f 207//207 159//159 73//73
f 208//208 167//167 75//75
f 167//167 208//208 166//166
f 123//123 208//208 75//75
f 124//124 208//208 123//123
f 208//208 124//124 78//78
f 169//169 208//208 78//78
f 208//208 169//169 168//168
f 208//208 168//168 39//39
f 115//115 208//208 39//39
f 116//116 208//208 115//115
f 208//208 116//116 40//40
f 166//166 208//208 40//40
# 412 faces, 0 coords texture

# End of File